<svg width="24" height="24" viewBox="0 0 24 24" fill="none" xmlns="http://www.w3.org/2000/svg">
<g id="cyborg" clip-path="url(#clip0_533_2727)">
<g id="Group">
<path id="Vector" d="M15.5176 7.03125C15.5176 7.80647 16.1486 8.4375 16.9238 8.4375H21.1042C21.0283 7.44788 20.7988 6.50213 20.4316 5.625H16.9238C16.1486 5.625 15.5176 6.25603 15.5176 7.03125Z" fill="#232536"/>
<path id="Vector_2" d="M6.37695 24H14.8145C15.2031 24 15.5176 23.6855 15.5176 23.2969V19.6875H16.9238V15.1172L9.893 9.84375H3.56445C3.17581 9.84375 2.86133 10.1582 2.86133 10.5469C2.86133 13.0373 3.88236 15.4228 5.67383 17.1428V23.2969C5.67383 23.6855 5.98831 24 6.37695 24Z" fill="#FFD050"/>
<path id="Vector_3" d="M12.002 0C11.6133 0 11.2988 0.314484 11.2988 0.703125V1.40625H8.35681C8.06558 0.589594 7.29242 0 6.37695 0C5.2138 0 4.26758 0.946219 4.26758 2.10938C4.26758 3.27253 5.2138 4.21875 6.37695 4.21875C7.29242 4.21875 8.06558 3.62916 8.35681 2.8125H11.2988V5.625H4.13806C3.84683 4.80834 3.07367 4.21875 2.1582 4.21875C0.995047 4.21875 0.00195312 5.16497 0.00195312 6.32812C0.00195312 7.49128 0.995047 8.4375 2.1582 8.4375C3.07367 8.4375 3.84683 7.84791 4.13806 7.03125H11.2988V9.14095L18.0485 14.2033C18.2257 14.3358 18.3301 14.5445 18.3301 14.7656V19.6875H19.0332C20.1964 19.6875 21.1426 18.7413 21.1426 17.5781V14.0625H23.2988C23.5584 14.0625 23.7966 13.9197 23.9189 13.691C24.0411 13.4624 24.0274 13.185 23.8839 12.9693L21.7533 9.84375H16.9238C15.3727 9.84375 14.1113 8.58239 14.1113 7.03125C14.1113 5.48011 15.3727 4.21875 16.9238 4.21875H19.6897C18.0628 1.68647 15.2291 0 12.002 0V0Z" fill="#232536"/>
</g>
</g>
<defs>
<clipPath id="clip0_533_2727">
<rect width="24" height="24" fill="white"/>
</clipPath>
</defs>
</svg>
