<svg width="48" height="48" viewBox="0 0 48 48" fill="none" xmlns="http://www.w3.org/2000/svg">
<g id="business-and-trade 1" clip-path="url(#clip0_533_2696)">
<path id="Vector" d="M39 48H9C4.029 48 0 43.971 0 39V9C0 4.029 4.029 0 9 0H39C43.971 0 48 4.029 48 9V39C48 43.971 43.971 48 39 48Z" fill="#FBF6EA"/>
<path id="Vector_2" d="M25.0305 13.9137L14.04 12.2442C13.53 12.1647 13.0095 12.3042 12.6195 12.6342C12.2295 12.9747 12 13.4637 12 13.9737V35.0442C12 35.5947 12.45 36.0447 13.0005 36.0447H16.251V30.7947C16.251 29.8242 17.031 29.0442 18.0015 29.0442H20.502C21.4725 29.0442 22.2525 29.8242 22.2525 30.7947V36.0447H26.502V15.6447C26.5005 14.7837 25.8795 14.0547 25.0305 13.9137ZM17.5005 26.7942H16.0005C15.5865 26.7942 15.2505 26.4582 15.2505 26.0442C15.2505 25.6302 15.5865 25.2942 16.0005 25.2942H17.5005C17.9145 25.2942 18.2505 25.6302 18.2505 26.0442C18.2505 26.4582 17.9145 26.7942 17.5005 26.7942ZM17.5005 23.7942H16.0005C15.5865 23.7942 15.2505 23.4582 15.2505 23.0442C15.2505 22.6302 15.5865 22.2942 16.0005 22.2942H17.5005C17.9145 22.2942 18.2505 22.6302 18.2505 23.0442C18.2505 23.4582 17.9145 23.7942 17.5005 23.7942ZM17.5005 20.7942H16.0005C15.5865 20.7942 15.2505 20.4582 15.2505 20.0442C15.2505 19.6302 15.5865 19.2942 16.0005 19.2942H17.5005C17.9145 19.2942 18.2505 19.6302 18.2505 20.0442C18.2505 20.4582 17.9145 20.7942 17.5005 20.7942ZM17.5005 17.7942H16.0005C15.5865 17.7942 15.2505 17.4582 15.2505 17.0442C15.2505 16.6302 15.5865 16.2942 16.0005 16.2942H17.5005C17.9145 16.2942 18.2505 16.6302 18.2505 17.0442C18.2505 17.4582 17.9145 17.7942 17.5005 17.7942ZM22.5 26.7942H21C20.586 26.7942 20.25 26.4582 20.25 26.0442C20.25 25.6302 20.586 25.2942 21 25.2942H22.5C22.914 25.2942 23.25 25.6302 23.25 26.0442C23.25 26.4582 22.914 26.7942 22.5 26.7942ZM22.5 23.7942H21C20.586 23.7942 20.25 23.4582 20.25 23.0442C20.25 22.6302 20.586 22.2942 21 22.2942H22.5C22.914 22.2942 23.25 22.6302 23.25 23.0442C23.25 23.4582 22.914 23.7942 22.5 23.7942ZM22.5 20.7942H21C20.586 20.7942 20.25 20.4582 20.25 20.0442C20.25 19.6302 20.586 19.2942 21 19.2942H22.5C22.914 19.2942 23.25 19.6302 23.25 20.0442C23.25 20.4582 22.914 20.7942 22.5 20.7942ZM22.5 17.7942H21C20.586 17.7942 20.25 17.4582 20.25 17.0442C20.25 16.6302 20.586 16.2942 21 16.2942H22.5C22.914 16.2942 23.25 16.6302 23.25 17.0442C23.25 17.4582 22.914 17.7942 22.5 17.7942Z" fill="#232536"/>
<path id="Vector_3" d="M34.6205 22.887L27.5 21.396V36.045H34.25C35.2145 36.045 36.0005 35.2605 36.0005 34.2945V24.597C36.0005 23.7705 35.4365 23.067 34.6205 22.887ZM32.2505 33.045H30.7505C30.3365 33.045 30.0005 32.709 30.0005 32.295C30.0005 31.881 30.3365 31.545 30.7505 31.545H32.2505C32.6645 31.545 33.0005 31.881 33.0005 32.295C33.0005 32.709 32.6645 33.045 32.2505 33.045ZM32.2505 30.045H30.7505C30.3365 30.045 30.0005 29.709 30.0005 29.295C30.0005 28.881 30.3365 28.545 30.7505 28.545H32.2505C32.6645 28.545 33.0005 28.881 33.0005 29.295C33.0005 29.709 32.6645 30.045 32.2505 30.045ZM32.2505 27.045H30.7505C30.3365 27.045 30.0005 26.709 30.0005 26.295C30.0005 25.881 30.3365 25.545 30.7505 25.545H32.2505C32.6645 25.545 33.0005 25.881 33.0005 26.295C33.0005 26.709 32.6645 27.045 32.2505 27.045Z" fill="#FFD050"/>
</g>
<defs>
<clipPath id="clip0_533_2696">
<rect width="48" height="48" fill="white"/>
</clipPath>
</defs>
</svg>
