<svg width="23" height="24" viewBox="0 0 23 24" fill="none" xmlns="http://www.w3.org/2000/svg">
<g id="economy (1)" clip-path="url(#clip0_533_2707)">
<g id="Group">
<g id="Group_2">
<path id="Vector" d="M5.11557 15.4255H2.53171C1.5999 15.4255 0.841797 16.2181 0.841797 17.1923V22.9152C0.841797 23.5135 1.30738 24.0002 1.87959 24.0002H5.76759C6.33985 24.0002 6.80544 23.5135 6.80544 22.9152V17.1923C6.80544 16.2181 6.04738 15.4255 5.11557 15.4255Z" fill="#232536"/>
</g>
</g>
<g id="Group_3">
<g id="Group_4">
<path id="Vector_2" d="M12.6996 11.9492H10.1157C9.18389 11.9492 8.42578 12.7418 8.42578 13.7159V22.9148C8.42578 23.5131 8.89137 23.9998 9.46363 23.9998H13.3516C13.9239 23.9998 14.3894 23.5131 14.3894 22.9148V13.7159C14.3894 12.7417 13.6314 11.9492 12.6996 11.9492Z" fill="#232536"/>
</g>
</g>
<g id="Group_5">
<g id="Group_6">
<path id="Vector_3" d="M20.4261 7.98877H17.8423C16.9104 7.98877 16.1523 8.78133 16.1523 9.75545V22.9148C16.1523 23.5131 16.6179 23.9998 17.1901 23.9998H21.0781C21.6504 23.9998 22.1159 23.5131 22.1159 22.9148V9.75545C22.116 8.78133 21.3579 7.98877 20.4261 7.98877Z" fill="#232536"/>
</g>
</g>
<g id="Group_7">
<g id="Group_8">
<path id="Vector_4" d="M18.3681 0.668159C18.052 0.201095 17.538 -0.0458895 16.9929 0.00642311L12.1128 0.478455C11.5678 0.53119 11.1059 0.872909 10.8771 1.39261C10.6483 1.91232 10.7004 2.50149 11.0165 2.96855L11.2889 3.37102L5.23176 7.74677L5.22557 7.75131C4.79576 8.06927 4.51015 8.54322 4.42133 9.0858C4.33251 9.62838 4.45106 10.1746 4.75519 10.624C5.05932 11.0733 5.51266 11.3719 6.03165 11.4648C6.1441 11.4849 6.25669 11.4949 6.36851 11.4949C6.77133 11.4949 7.1637 11.3657 7.49957 11.1184L13.5664 6.73572L13.8476 7.15108C14.1357 7.57666 14.588 7.8198 15.0783 7.8198C15.1261 7.8198 15.1743 7.81745 15.2228 7.81281C15.7677 7.76008 16.2297 7.41831 16.4585 6.89856L18.5076 2.2441C18.7364 1.7243 18.6843 1.13518 18.3681 0.668159Z" fill="#FFD050"/>
</g>
</g>
</g>
<defs>
<clipPath id="clip0_533_2707">
<rect width="22.9565" height="24" fill="white"/>
</clipPath>
</defs>
</svg>
