<svg width="136" height="32" viewBox="0 0 136 32" fill="none" xmlns="http://www.w3.org/2000/svg">
<g id="Logo 5" clip-path="url(#clip0_802_445)">
<path id="Vector" d="M39 9.90005H42.4196V23.7674H39V9.90005ZM43.7833 18.5512C43.7833 15.1163 45.9138 13.0575 49.1098 13.0575C52.3058 13.0575 54.4363 15.1163 54.4363 18.5512C54.4363 21.9859 52.3803 24.0661 49.1098 24.0661C45.8393 24.0661 43.7833 22.0606 43.7833 18.5512ZM51.0487 18.5512C51.0487 16.6631 50.3136 15.5537 49.1417 15.5537C47.9699 15.5537 47.2455 16.6204 47.2455 18.5512C47.2455 20.4819 47.9699 21.5379 49.1417 21.5379C50.3136 21.5379 51.0699 20.4819 51.0699 18.5618L51.0487 18.5512ZM55.7999 24.4821H59.1024C59.2528 24.8382 59.5153 25.1351 59.8501 25.3277C60.1847 25.5203 60.5732 25.598 60.9561 25.5488C62.2664 25.5488 62.9482 24.8448 62.9482 23.7994V21.8793H62.9588C62.6767 22.4772 62.2203 22.9755 61.6499 23.3087C61.0794 23.6419 60.4216 23.7944 59.7629 23.746C57.2594 23.746 55.5975 21.8366 55.5975 18.5512C55.5975 15.2656 57.1849 13.2175 59.8588 13.2175C60.5343 13.1813 61.2044 13.3558 61.7768 13.7169C62.3492 14.078 62.7956 14.6079 63.0547 15.2336H62.9588V13.3029H66.3466V23.6927C66.3466 26.1995 64.1307 27.7676 60.8708 27.7676C57.9093 27.7569 56.013 26.4022 55.8213 24.4928L55.7999 24.4821ZM62.9588 18.5512C62.9588 16.8764 62.1919 15.8203 60.9773 15.8203C59.7629 15.8203 59.0172 16.8871 59.0172 18.5512C59.0172 20.2152 59.7523 21.1966 60.9773 21.1966C62.2025 21.1966 62.9588 20.2899 62.9588 18.5512ZM67.6995 18.5512C67.6995 15.1163 69.8301 13.0575 73.026 13.0575C76.222 13.0575 78.3526 15.1163 78.3526 18.5512C78.3526 21.9859 76.2859 24.0661 73.026 24.0661C69.7662 24.0661 67.7208 22.0606 67.7208 18.5512H67.6995ZM74.9649 18.5512C74.9649 16.6631 74.2192 15.5537 73.058 15.5537C71.8968 15.5537 71.1617 16.6204 71.1617 18.5512C71.1617 20.4819 71.8861 21.5379 73.058 21.5379C74.2299 21.5379 74.9863 20.4819 74.9863 18.5618L74.9649 18.5512ZM79.7375 10.7747C79.7227 10.4259 79.8123 10.0807 79.995 9.78333C80.1778 9.48599 80.4452 9.2502 80.7627 9.10628C81.0804 8.96237 81.4338 8.91689 81.7775 8.97567C82.1211 9.03453 82.4394 9.19495 82.6913 9.43639C82.9431 9.67782 83.1171 9.98914 83.1907 10.3304C83.2644 10.6716 83.2344 11.0271 83.1046 11.3512C82.9749 11.6752 82.7513 11.9529 82.4626 12.1487C82.1739 12.3444 81.8333 12.4492 81.4846 12.4495C81.2618 12.4552 81.0401 12.4165 80.8323 12.3357C80.6246 12.2548 80.4349 12.1335 80.2744 11.9787C80.1138 11.8238 79.9855 11.6387 79.897 11.4339C79.8086 11.229 79.7616 11.0086 79.7589 10.7854L79.7375 10.7747ZM79.7375 13.2922H83.1998V23.81H79.7908L79.7375 13.2922ZM95.6532 18.5512C95.6532 21.9753 94.1194 23.9594 91.5093 23.9594C90.8411 24.0007 90.1762 23.8356 89.6045 23.4865C89.0328 23.1374 88.5828 22.6211 88.3133 22.0073H88.2495V27.1916H84.8294V13.3242H88.2277V15.2016H88.2924C88.5518 14.5758 88.9984 14.0453 89.5701 13.6826C90.1418 13.3199 90.8117 13.1427 91.4875 13.1749C94.1723 13.1535 95.7169 15.127 95.7169 18.5618L95.6532 18.5512ZM92.17 18.5512C92.17 16.8871 91.3918 15.8097 90.188 15.8097C88.9841 15.8097 88.2277 16.8764 88.2176 18.5512C88.2067 20.2259 88.9841 21.2819 90.188 21.2819C91.3918 21.2819 92.2338 20.2899 92.2338 18.5618L92.17 18.5512ZM101.491 13.0468C104.357 13.0468 106.136 14.4016 106.157 16.5777H103.036C103.036 15.8203 102.408 15.351 101.47 15.351C100.532 15.351 100.085 15.7137 100.085 16.2577C100.085 16.8017 100.479 16.9724 101.268 17.1324L103.462 17.5804C105.593 18.0285 106.445 18.8819 106.445 20.4713C106.445 22.6046 104.474 24.0554 101.545 24.0554C98.6149 24.0554 96.7076 22.6473 96.5699 20.5033H99.8826C99.9783 21.2819 100.596 21.7406 101.598 21.7406C102.599 21.7406 103.068 21.4206 103.068 20.8552C103.068 20.2899 102.749 20.1939 101.928 20.0232L99.9464 19.6072C97.8904 19.1699 96.8142 18.0925 96.8142 16.4817C96.8788 14.3909 98.6678 13.0575 101.555 13.0575L101.491 13.0468ZM117.897 23.7994H114.584V21.8259H114.52C114.335 22.4842 113.931 23.0595 113.375 23.457C112.819 23.8546 112.144 24.0505 111.463 24.0127C110.947 24.0296 110.435 23.9371 109.958 23.7416C109.481 23.5459 109.052 23.2516 108.697 22.8779C108.341 22.5042 108.069 22.0595 107.898 21.5731C107.726 21.0866 107.66 20.5694 107.702 20.0552V13.3029H111.122V19.3192C111.122 20.5566 111.772 21.2286 112.837 21.2286C113.087 21.2267 113.333 21.1712 113.56 21.0657C113.786 20.9602 113.988 20.8073 114.151 20.6172C114.313 20.427 114.433 20.2043 114.503 19.9638C114.571 19.7233 114.588 19.4707 114.552 19.2232V13.3029H117.961L117.897 23.7994ZM119.548 13.2922H122.872V15.319H122.946C123.13 14.6697 123.524 14.0997 124.065 13.6983C124.607 13.2968 125.267 13.0865 125.94 13.1002C126.617 13.0414 127.291 13.2371 127.831 13.6495C128.37 14.0618 128.737 14.6609 128.859 15.3296H129.008C129.221 14.6574 129.65 14.0743 130.228 13.6711C130.806 13.2679 131.501 13.0672 132.204 13.1002C132.672 13.0824 133.138 13.1636 133.572 13.3387C134.006 13.5137 134.399 13.7785 134.723 14.1159C135.048 14.4532 135.298 14.8554 135.457 15.2963C135.616 15.737 135.68 16.2064 135.646 16.6737V23.81H132.204V17.5484C132.204 16.4817 131.703 15.8843 130.734 15.8843C130.519 15.8808 130.305 15.9239 130.109 16.0106C129.913 16.0973 129.736 16.2256 129.594 16.3867C129.451 16.5478 129.345 16.7379 129.282 16.9439C129.22 17.15 129.203 17.3671 129.232 17.5804V23.81H125.972V17.5164C125.972 16.4497 125.45 15.8843 124.513 15.8843C124.295 15.8826 124.081 15.9274 123.882 16.0158C123.683 16.1042 123.505 16.234 123.362 16.3967C123.217 16.5594 123.109 16.7511 123.045 16.9589C122.981 17.1667 122.962 17.3859 122.989 17.6018V23.81H119.57L119.548 13.2922Z" fill="#282938"/>
<path id="Vector_2" d="M32.2361 10.8063C32.2361 8.68319 31.5958 6.60957 30.399 4.85701C29.2022 3.10445 27.5048 1.75469 25.5289 0.984508C23.553 0.214331 21.3909 0.059655 19.3258 0.540737C17.2606 1.02182 15.3888 2.11623 13.9552 3.68062H0.660156V31.778H28.7311V18.6467C29.8329 17.6599 30.7145 16.4517 31.3185 15.1007C31.9223 13.7497 32.235 12.2865 32.2361 10.8063ZM26.8349 10.8063C26.837 11.8236 26.5377 12.8188 25.9747 13.6658C25.4118 14.5127 24.6106 15.1733 23.6725 15.5641C22.7344 15.9549 21.7016 16.0583 20.7048 15.861C19.7081 15.6639 18.7922 15.1751 18.073 14.4564C17.3538 13.7378 16.8637 12.8216 16.6647 11.824C16.4658 10.8263 16.5668 9.79199 16.9551 8.85186C17.3435 7.91172 18.0016 7.10808 18.8463 6.54264C19.6909 5.97721 20.684 5.67539 21.7001 5.67538C23.0601 5.67538 24.3645 6.21562 25.3272 7.17754C26.2898 8.13947 26.8321 9.44453 26.8349 10.8063ZM23.33 26.3698H6.06129V9.08891H11.324C11.2223 9.65582 11.1688 10.2303 11.1641 10.8063C11.167 13.6034 12.2779 16.2852 14.2532 18.2631C16.2284 20.2409 18.9066 21.3533 21.7001 21.3562C22.2462 21.3532 22.7912 21.3069 23.33 21.2175V26.3698Z" fill="#282938"/>
</g>
<defs>
<clipPath id="clip0_802_445">
<rect width="136" height="32" fill="white"/>
</clipPath>
</defs>
</svg>
