<svg width="153" height="32" viewBox="0 0 153 32" fill="none" xmlns="http://www.w3.org/2000/svg">
<g id="Logo 4" clip-path="url(#clip0_802_434)">
<path id="Vector" d="M49.3722 25.4924C48.6013 25.5342 47.8388 25.3151 47.2077 24.8707C46.944 24.6754 46.7319 24.4189 46.5896 24.1233C46.4474 23.8276 46.3792 23.5019 46.3913 23.1741V11.1682C46.3849 11.1173 46.3903 11.0657 46.407 11.0173C46.4236 10.9689 46.4511 10.9249 46.4874 10.8887C46.5236 10.8525 46.5677 10.825 46.6161 10.8083C46.6646 10.7917 46.7163 10.7863 46.7671 10.7926H48.9445C49.1907 10.7926 49.3074 10.9221 49.3074 11.1682V22.2416C49.3074 22.7338 49.5278 22.9798 49.9813 22.9798C50.1736 22.9878 50.366 22.9659 50.5516 22.9151C50.8108 22.9151 50.9534 22.9928 50.9664 23.2259L51.1608 24.8448C51.1701 24.892 51.1693 24.9407 51.1582 24.9875C51.1471 25.0344 51.1261 25.0782 51.0967 25.1163C51.0672 25.1543 51.0299 25.1857 50.9873 25.2081C50.9447 25.2305 50.8978 25.2436 50.8497 25.2464C50.3727 25.4038 49.8744 25.4868 49.3722 25.4924Z" fill="#282938"/>
<path id="Vector_2" d="M61.6213 24.1067C60.5272 25.01 59.1524 25.5042 57.7331 25.5042C56.3138 25.5042 54.939 25.01 53.8449 24.1067C52.8833 23.1366 52.3438 21.8263 52.3438 20.4609C52.3438 19.0954 52.8833 17.7851 53.8449 16.815C54.9412 15.9164 56.3152 15.4253 57.7331 15.4253C59.151 15.4253 60.5251 15.9164 61.6213 16.815C62.5608 17.7941 63.0853 19.098 63.0853 20.4545C63.0853 21.8108 62.5608 23.1147 61.6213 24.0938V24.1067ZM55.8927 22.3971C56.4004 22.8567 57.061 23.1113 57.7461 23.1113C58.4311 23.1113 59.0918 22.8567 59.5994 22.3971C60.059 21.8692 60.3121 21.1929 60.3121 20.4933C60.3121 19.7935 60.059 19.1174 59.5994 18.5894C59.0918 18.1298 58.4311 17.8753 57.7461 17.8753C57.061 17.8753 56.4004 18.1298 55.8927 18.5894C55.4331 19.1174 55.1801 19.7935 55.1801 20.4933C55.1801 21.1929 55.4331 21.8692 55.8927 22.3971Z" fill="#282938"/>
<path id="Vector_3" d="M75.0747 15.7527C75.321 15.7527 75.4376 15.8822 75.4376 16.1283V25.4144C75.4602 26.0412 75.3428 26.6651 75.094 27.2409C74.8452 27.8167 74.4711 28.3297 73.999 28.7429C72.951 29.636 71.6033 30.0987 70.2274 30.0381C68.9846 30.0818 67.7585 29.7427 66.7151 29.0668C66.2694 28.7743 65.8888 28.3935 65.5967 27.9479C65.3046 27.5024 65.1074 27.0015 65.0172 26.4765C65.0172 26.2174 65.0172 26.1009 65.3671 26.1009H67.5446C67.637 26.1041 67.7265 26.1338 67.8024 26.1867C67.8783 26.2395 67.9373 26.3132 67.9722 26.3988C68.1134 26.7922 68.395 27.1196 68.7628 27.3183C69.2111 27.5494 69.7101 27.6652 70.2145 27.655C70.5187 27.6718 70.8234 27.6276 71.1104 27.5253C71.3975 27.423 71.6613 27.2646 71.8864 27.0593C72.0921 26.8445 72.252 26.5904 72.3567 26.3121C72.4614 26.0339 72.5086 25.7373 72.4955 25.4403V24.6244C71.7159 25.1974 70.7671 25.4937 69.7997 25.4662C69.1226 25.4909 68.4476 25.3785 67.815 25.1359C67.1825 24.8933 66.6056 24.5256 66.1189 24.0545C65.1845 23.0885 64.6621 21.7976 64.6621 20.4541C64.6621 19.1105 65.1845 17.8196 66.1189 16.8536C66.608 16.3868 67.1856 16.0225 67.8177 15.7823C68.4499 15.5421 69.1238 15.4307 69.7997 15.4549C70.7951 15.4286 71.7694 15.744 72.5603 16.3485V16.1412C72.5543 16.0917 72.5596 16.0413 72.5755 15.9939C72.5914 15.9466 72.6178 15.9033 72.6525 15.8674C72.6872 15.8314 72.7295 15.8036 72.7764 15.786C72.8233 15.7684 72.8734 15.7615 72.9233 15.7657L75.0747 15.7527ZM70.046 23.1609C70.3799 23.1712 70.712 23.1082 71.0188 22.9761C71.3256 22.8441 71.5997 22.6463 71.8216 22.3968C72.2525 21.8408 72.4863 21.1574 72.4863 20.4541C72.4863 19.7508 72.2525 19.0675 71.8216 18.5114C71.6004 18.2652 71.3281 18.0704 71.0235 17.9407C70.7191 17.8109 70.3898 17.7493 70.0589 17.7602C69.7212 17.7496 69.3851 17.8125 69.0741 17.9444C68.763 18.0763 68.4843 18.2742 68.2574 18.5243C67.78 19.0562 67.529 19.7531 67.5575 20.467C67.5341 21.1739 67.7795 21.8635 68.2444 22.3968C68.4719 22.6462 68.7507 22.8437 69.0616 22.9756C69.3726 23.1074 69.7083 23.1707 70.046 23.1609Z" fill="#282938"/>
<path id="Vector_4" d="M86.6206 24.1059C85.5243 25.0045 84.1503 25.4956 82.7324 25.4956C81.3145 25.4956 79.9404 25.0045 78.8442 24.1059C77.9038 23.1246 77.3789 21.8186 77.3789 20.4601C77.3789 19.1015 77.9038 17.7954 78.8442 16.8142C79.9414 15.9179 81.3151 15.4282 82.7324 15.4282C84.1496 15.4282 85.5233 15.9179 86.6206 16.8142C87.5601 17.7932 88.0846 19.0972 88.0846 20.4536C88.0846 21.81 87.5601 23.1139 86.6206 24.0929V24.1059ZM80.879 22.3963C81.1275 22.6325 81.4204 22.817 81.7407 22.9393C82.0611 23.0616 82.4025 23.1192 82.7453 23.1086C83.086 23.1174 83.425 23.0591 83.743 22.9369C84.061 22.8145 84.3518 22.6309 84.5987 22.3963C85.0508 21.8648 85.299 21.19 85.299 20.4924C85.299 19.7949 85.0508 19.1201 84.5987 18.5886C84.3518 18.354 84.061 18.1703 83.743 18.048C83.425 17.9258 83.086 17.8674 82.7453 17.8762C82.4025 17.8657 82.0611 17.9233 81.7407 18.0455C81.4204 18.1678 81.1275 18.3524 80.879 18.5886C80.427 19.1201 80.1788 19.7949 80.1788 20.4924C80.1788 21.19 80.427 21.8648 80.879 22.3963Z" fill="#282938"/>
<path id="Vector_5" d="M92.7642 13.5513C92.4217 13.851 91.9818 14.0161 91.5265 14.0161C91.0712 14.0161 90.6314 13.851 90.2887 13.5513C90.1334 13.4048 90.0096 13.2281 89.9251 13.0322C89.8405 12.8362 89.7969 12.625 89.7969 12.4116C89.7969 12.1981 89.8405 11.9869 89.9251 11.791C90.0096 11.595 90.1334 11.4184 90.2887 11.2719C90.6349 10.9796 91.0733 10.8193 91.5265 10.8193C91.9796 10.8193 92.4181 10.9796 92.7642 11.2719C92.9196 11.4184 93.0433 11.595 93.1279 11.791C93.2125 11.9869 93.2561 12.1981 93.2561 12.4116C93.2561 12.625 93.2125 12.8362 93.1279 13.0322C93.0433 13.2281 92.9196 13.4048 92.7642 13.5513ZM93.0365 25.4925C92.266 25.5303 91.5048 25.3116 90.872 24.8707C90.6123 24.6726 90.4038 24.4151 90.2641 24.12C90.1242 23.8249 90.0572 23.5005 90.0684 23.1741V16.1287C90.0621 16.0778 90.0676 16.0261 90.0842 15.9777C90.1008 15.9293 90.1283 15.8853 90.1646 15.8491C90.2008 15.8129 90.2449 15.7854 90.2934 15.7687C90.3418 15.7521 90.3934 15.7467 90.4443 15.753H92.6217C92.868 15.753 92.9846 15.8826 92.9846 16.1287V22.2417C92.9846 22.7338 93.205 22.9799 93.6456 22.9799C93.8421 22.987 94.0387 22.9651 94.2288 22.9151C94.488 22.9151 94.6306 22.9929 94.6436 23.2259L94.8379 24.8449C94.8473 24.8921 94.8464 24.9407 94.8354 24.9876C94.8243 25.0344 94.8033 25.0783 94.7739 25.1163C94.7444 25.1544 94.707 25.1857 94.6645 25.2081C94.6219 25.2306 94.575 25.2436 94.5269 25.2464C94.0457 25.4047 93.543 25.4877 93.0365 25.4925Z" fill="#282938"/>
<path id="Vector_6" d="M102.849 15.4419C103.53 15.4151 104.208 15.5251 104.845 15.7653C105.482 16.0056 106.063 16.3714 106.556 16.8407C107.473 17.8237 107.983 19.1172 107.983 20.4607C107.983 21.804 107.473 23.0977 106.556 24.0806C106.067 24.5541 105.485 24.9233 104.848 25.166C104.211 25.4086 103.531 25.5197 102.849 25.4922C101.879 25.5138 100.928 25.2182 100.141 24.6504V29.3258C100.141 29.5719 100.011 29.6885 99.765 29.6885H97.5876C97.5379 29.6977 97.4867 29.6948 97.4384 29.6799C97.3901 29.6649 97.3462 29.6385 97.3104 29.6028C97.2747 29.567 97.2482 29.5232 97.2333 29.4749C97.2183 29.4267 97.2154 29.3755 97.2247 29.3258V18.7057C97.2399 18.6019 97.2307 18.4959 97.1976 18.3962C97.1646 18.2965 97.1087 18.2059 97.0344 18.1317C96.9601 18.0575 96.8695 18.0016 96.7697 17.9686C96.67 17.9356 96.5639 17.9264 96.46 17.9415H96.0322C95.7472 17.9415 95.6045 17.838 95.6045 17.6307V16.1025C95.5979 16.0079 95.6238 15.9139 95.6781 15.8362C95.7323 15.7583 95.8116 15.7015 95.9026 15.6751C96.351 15.5122 96.8255 15.4333 97.3024 15.4419C97.7781 15.3999 98.2554 15.5007 98.6734 15.7314C99.0913 15.9622 99.4308 16.3123 99.6484 16.7371C100.066 16.3151 100.565 15.9826 101.115 15.76C101.666 15.5372 102.256 15.429 102.849 15.4419ZM100.828 22.3969C101.059 22.6382 101.336 22.8303 101.644 22.9615C101.951 23.0927 102.282 23.1603 102.616 23.1603C102.951 23.1603 103.282 23.0927 103.589 22.9615C103.896 22.8303 104.174 22.6382 104.405 22.3969C104.892 21.8543 105.148 21.1434 105.118 20.4154C105.152 19.6866 104.895 18.9741 104.405 18.4337C104.174 18.1924 103.896 18.0003 103.589 17.8691C103.282 17.7379 102.951 17.6703 102.616 17.6703C102.282 17.6703 101.951 17.7379 101.644 17.8691C101.336 18.0003 101.059 18.1924 100.828 18.4337C100.356 18.9836 100.111 19.6917 100.141 20.4154C100.115 21.1383 100.36 21.845 100.828 22.3969Z" fill="#282938"/>
<path id="Vector_7" d="M114.098 25.4921C112.935 25.5399 111.781 25.2618 110.767 24.6891C110.36 24.4443 110.014 24.1111 109.753 23.7142C109.494 23.3174 109.326 22.8672 109.264 22.3968C109.264 22.1377 109.355 22.0082 109.64 22.0082H111.545C111.636 22.0117 111.724 22.0402 111.799 22.0905C111.875 22.1408 111.934 22.2109 111.972 22.2931C112.245 22.9925 112.957 23.3422 114.098 23.3422C114.496 23.3604 114.892 23.2803 115.252 23.109C115.375 23.0531 115.482 22.9645 115.56 22.8527C115.637 22.7409 115.684 22.6102 115.693 22.4745C115.693 22.1377 115.485 21.9046 115.07 21.7491C114.579 21.5855 114.069 21.4769 113.554 21.4254C112.943 21.3562 112.337 21.2481 111.739 21.1016C111.158 20.9702 110.63 20.6679 110.223 20.2339C109.983 19.9387 109.807 19.5976 109.704 19.2313C109.602 18.8652 109.576 18.4819 109.628 18.1054C109.681 17.7288 109.81 17.367 110.008 17.0424C110.206 16.7179 110.469 16.4376 110.78 16.2189C111.715 15.6242 112.81 15.3346 113.916 15.39C114.988 15.3539 116.048 15.6185 116.975 16.1542C117.349 16.3658 117.671 16.6582 117.918 17.0099C118.164 17.3617 118.33 17.764 118.402 18.1875C118.402 18.4465 118.284 18.5761 118.051 18.5761H116.133C116.052 18.5808 115.972 18.5612 115.902 18.5196C115.833 18.478 115.778 18.4164 115.744 18.343C115.616 18.0362 115.374 17.7904 115.07 17.6565C114.726 17.4769 114.343 17.3878 113.955 17.3975C113.575 17.3769 113.196 17.4526 112.854 17.6177C112.733 17.6643 112.63 17.7458 112.556 17.852C112.482 17.9583 112.441 18.0841 112.44 18.2134C112.448 18.3906 112.513 18.5604 112.625 18.6979C112.736 18.8354 112.889 18.9334 113.061 18.9776C113.559 19.165 114.076 19.2953 114.603 19.3662C115.21 19.4458 115.811 19.5583 116.405 19.7029C116.987 19.8342 117.514 20.1364 117.922 20.5706C118.14 20.8098 118.308 21.0897 118.417 21.3942C118.526 21.6987 118.573 22.0219 118.557 22.3449C118.568 22.7926 118.463 23.2356 118.252 23.6305C118.04 24.0256 117.73 24.359 117.351 24.5985C116.383 25.2197 115.248 25.5314 114.098 25.4921Z" fill="#282938"/>
<path id="Vector_8" d="M132.257 24.8449C132.264 24.8908 132.262 24.9379 132.252 24.9831C132.241 25.0283 132.22 25.0708 132.192 25.1083C132.165 25.1457 132.13 25.1771 132.09 25.2009C132.05 25.2245 132.005 25.24 131.959 25.2463C131.486 25.4007 130.992 25.4836 130.495 25.4924C130.002 25.5434 129.504 25.4665 129.05 25.269C128.596 25.0716 128.201 24.7605 127.902 24.3657C126.987 25.1522 125.803 25.5558 124.598 25.4924C124.037 25.5182 123.478 25.4266 122.956 25.2237C122.434 25.0206 121.96 24.7108 121.564 24.3139C121.172 23.8979 120.867 23.4071 120.669 22.8708C120.471 22.3344 120.384 21.7636 120.411 21.1925V16.1286C120.411 15.8825 120.527 15.7529 120.774 15.7529H122.952C123.197 15.7529 123.314 15.8825 123.314 16.1286V20.804C123.291 21.3865 123.49 21.9562 123.872 22.3971C124.062 22.599 124.294 22.7578 124.55 22.8628C124.808 22.9678 125.084 23.0165 125.362 23.0058C125.646 23.0182 125.93 22.9742 126.197 22.8764C126.463 22.7786 126.709 22.6289 126.917 22.4359C127.115 22.2325 127.269 21.9908 127.369 21.7257C127.469 21.4606 127.514 21.1778 127.501 20.8947V16.1286C127.501 15.8825 127.617 15.7529 127.863 15.7529H130.067C130.313 15.7529 130.429 15.8825 130.429 16.1286V22.2287C130.429 22.7338 130.65 22.9799 131.078 22.9799C131.278 22.9876 131.48 22.9658 131.674 22.915C131.723 22.9013 131.774 22.8989 131.825 22.9079C131.875 22.9169 131.922 22.937 131.963 22.967C132.004 22.9969 132.038 23.0357 132.062 23.0806C132.086 23.1254 132.1 23.1751 132.102 23.226L132.257 24.8449Z" fill="#282938"/>
<path id="Vector_9" d="M152.851 24.8452C152.862 24.8915 152.863 24.9399 152.854 24.9868C152.844 25.0336 152.825 25.0778 152.796 25.1162C152.767 25.1546 152.732 25.1862 152.689 25.2087C152.647 25.2313 152.6 25.2442 152.553 25.2467C152.071 25.4032 151.568 25.4862 151.062 25.4927C150.292 25.5324 149.53 25.3137 148.897 24.8711C148.624 24.6814 148.402 24.4274 148.25 24.1314C148.099 23.8355 148.023 23.5068 148.03 23.1744V20.1308C148.056 19.5501 147.862 18.9807 147.484 18.5378C147.303 18.3354 147.079 18.1758 146.827 18.0705C146.577 17.9653 146.306 17.917 146.033 17.9291C145.788 17.9198 145.544 17.9664 145.32 18.0651C145.095 18.1638 144.896 18.3122 144.738 18.499C144.395 18.933 144.22 19.4753 144.245 20.0273V24.8063C144.245 25.0524 144.128 25.1819 143.882 25.1819H141.691C141.641 25.1882 141.589 25.1828 141.54 25.1662C141.492 25.1496 141.448 25.122 141.412 25.0859C141.376 25.0496 141.348 25.0056 141.331 24.9571C141.314 24.9087 141.309 24.8571 141.315 24.8063V20.1308C141.344 19.5565 141.164 18.991 140.81 18.5378C140.652 18.3475 140.454 18.1942 140.23 18.089C140.006 17.9838 139.761 17.9292 139.514 17.9291C139.249 17.9185 138.986 17.9637 138.74 18.0619C138.494 18.1601 138.273 18.3091 138.089 18.499C137.718 18.9192 137.527 19.4679 137.557 20.0273V24.8063C137.563 24.8571 137.558 24.9087 137.541 24.9571C137.524 25.0056 137.497 25.0496 137.46 25.0859C137.424 25.122 137.38 25.1496 137.332 25.1662C137.284 25.1828 137.232 25.1882 137.181 25.1819H135.069C134.822 25.1819 134.705 25.0524 134.705 24.8063V18.7062C134.721 18.6024 134.711 18.4964 134.679 18.3966C134.646 18.297 134.589 18.2064 134.515 18.1322C134.441 18.058 134.35 18.0021 134.25 17.9691C134.151 17.936 134.045 17.9269 133.941 17.9421H133.513C133.228 17.9421 133.085 17.8385 133.085 17.6312V16.103C133.079 16.0084 133.104 15.9144 133.159 15.8366C133.213 15.7589 133.292 15.702 133.384 15.6756C133.831 15.5127 134.306 15.4337 134.783 15.4424C135.241 15.4035 135.7 15.4946 136.109 15.7055C136.517 15.9163 136.858 16.2382 137.091 16.634C137.527 16.2198 138.046 15.9003 138.612 15.6953C139.178 15.4903 139.781 15.4042 140.383 15.4424C140.966 15.414 141.549 15.5234 142.082 15.762C142.616 16.0005 143.086 16.3613 143.454 16.8153C143.883 16.3495 144.41 15.9847 144.997 15.7472C145.585 15.5098 146.217 15.4057 146.85 15.4424C147.416 15.416 147.98 15.5071 148.509 15.71C149.038 15.9128 149.519 16.223 149.921 16.621C150.315 17.0361 150.62 17.5268 150.819 18.0633C151.017 18.5999 151.104 19.1711 151.075 19.7423V22.2419C151.075 22.7341 151.295 22.9802 151.71 22.9802C151.911 22.9896 152.112 22.9677 152.306 22.9154C152.574 22.9154 152.716 23.019 152.734 23.2263L152.851 24.8452Z" fill="#282938"/>
<path id="Vector_10" d="M0.873186 14.0697C1.82939 10.2293 4.04394 6.81882 7.1642 4.3815C10.2844 1.94419 14.1311 0.620117 18.0915 0.620117C22.052 0.620117 25.8985 1.94419 29.0188 4.3815C32.1391 6.81882 34.3537 10.2293 35.3099 14.0697H33.7546C31.1309 14.0311 28.561 14.8147 26.4058 16.3104C26.2814 16.4004 26.1516 16.4825 26.017 16.5564H25.8356C25.701 16.4825 25.5711 16.4004 25.4467 16.3104C23.2725 14.8493 20.7117 14.069 18.0915 14.069C15.4713 14.069 12.9106 14.8493 10.7363 16.3104C10.6119 16.4004 10.4821 16.4825 10.3475 16.5564H10.166C10.0315 16.4825 9.9016 16.4004 9.77722 16.3104C7.62202 14.8147 5.05215 14.0311 2.42847 14.0697H0.873186ZM30.955 22.1903C31.7534 21.569 32.743 21.2439 33.7546 21.2708H35.8413V17.1133H33.7546C31.9727 17.0918 30.2317 17.646 28.7906 18.6934C27.9796 19.2909 26.9986 19.6132 25.9911 19.6132C24.9836 19.6132 24.0026 19.2909 23.1916 18.6934C21.7139 17.6656 19.9567 17.1146 18.1563 17.1146C16.356 17.1146 14.5987 17.6656 13.1211 18.6934C12.3101 19.2909 11.329 19.6132 10.3216 19.6132C9.31405 19.6132 8.333 19.2909 7.52205 18.6934C6.06319 17.6326 4.29715 17.0777 2.49328 17.1133H0.341797V21.2708H2.42847C3.44007 21.2439 4.4296 21.569 5.22799 22.1903C6.70293 23.2188 8.45819 23.7703 10.2568 23.7703C12.0553 23.7703 13.8106 23.2188 15.2856 22.1903C16.085 21.5708 17.0737 21.2461 18.0851 21.2708C19.0969 21.2418 20.0872 21.567 20.8846 22.1903C22.3622 23.2181 24.1194 23.7691 25.9198 23.7691C27.7202 23.7691 29.4774 23.2181 30.955 22.1903ZM30.955 29.6244C31.7534 29.0031 32.743 28.678 33.7546 28.7049H35.8413V24.5475H33.7546C31.9727 24.5259 30.2317 25.0801 28.7906 26.1275C27.9796 26.725 26.9986 27.0473 25.9911 27.0473C24.9836 27.0473 24.0026 26.725 23.1916 26.1275C21.7139 25.0996 19.9567 24.5487 18.1563 24.5487C16.356 24.5487 14.5987 25.0996 13.1211 26.1275C12.3101 26.725 11.329 27.0473 10.3216 27.0473C9.31405 27.0473 8.333 26.725 7.52205 26.1275C6.06319 25.0667 4.29715 24.5118 2.49328 24.5475H0.341797V28.7049H2.42847C3.44007 28.678 4.4296 29.0031 5.22799 29.6244C6.70293 30.653 8.45819 31.2044 10.2568 31.2044C12.0553 31.2044 13.8106 30.653 15.2856 29.6244C16.085 29.005 17.0737 28.6802 18.0851 28.7049C19.0969 28.6759 20.0872 29.0011 20.8846 29.6244C22.3622 30.6522 24.1194 31.2033 25.9198 31.2033C27.7202 31.2033 29.4774 30.6522 30.955 29.6244Z" fill="#282938"/>
</g>
<defs>
<clipPath id="clip0_802_434">
<rect width="153" height="32" fill="white"/>
</clipPath>
</defs>
</svg>
