<svg width="160" height="32" viewBox="0 0 160 32" fill="none" xmlns="http://www.w3.org/2000/svg">
<g id="Logo 1" clip-path="url(#clip0_802_404)">
<path id="Vector" d="M24.4466 14.0828C24.0017 14.5374 23.6608 15.086 23.4486 15.6896C23.2363 16.2932 23.1578 16.9369 23.2184 17.5749L23.1973 17.5534C23.2597 18.3043 23.16 19.06 22.9051 19.7677C22.6502 20.4755 22.2463 21.1182 21.7215 21.6511C21.1968 22.184 20.5637 22.5942 19.8667 22.853C19.1697 23.1118 18.4254 23.213 17.6859 23.1497L17.707 23.1711C16.8224 23.0875 15.9339 23.2829 15.1627 23.7308C14.3915 24.1787 13.7751 24.8573 13.3976 25.6739C13.02 26.4905 12.8997 27.4056 13.0531 28.2941C13.2065 29.1827 13.6261 30.0016 14.2545 30.6393C14.8831 31.2768 15.69 31.7021 16.5652 31.857C17.4405 32.012 18.3415 31.8889 19.1454 31.5049C19.9493 31.1209 20.6169 30.4943 21.0574 29.7109C21.4978 28.9273 21.6895 28.025 21.6063 27.1269L21.6287 27.1483C21.5662 26.3974 21.666 25.6417 21.9208 24.9339C22.1757 24.2262 22.5797 23.5834 23.1045 23.0506C23.6293 22.5177 24.2622 22.1076 24.9593 21.8488C25.6563 21.5899 26.4006 21.4887 27.1401 21.5521L27.1178 21.5306C27.8404 21.5966 28.5677 21.4763 29.2324 21.1808C29.897 20.8854 30.4775 20.4244 30.9199 19.8405C31.3623 19.2567 31.6525 18.5689 31.7634 17.8408C31.8744 17.1128 31.8025 16.368 31.5545 15.6757C31.3066 14.9833 30.8905 14.3657 30.3448 13.8802C29.7992 13.3946 29.1417 13.0568 28.4332 12.8979C27.7248 12.739 26.9882 12.7643 26.2919 12.9715C25.5956 13.1786 24.9621 13.5609 24.4501 14.0828H24.4466Z" fill="#282938"/>
<path id="Vector_2" d="M15.7846 20.3597L15.7623 20.3383C16.3909 20.4026 17.0257 20.3243 17.6207 20.1089C18.2158 19.8937 18.7564 19.5468 19.2032 19.0933C19.6501 18.6399 19.9922 18.0913 20.2046 17.4873C20.4171 16.8832 20.4948 16.2387 20.4319 15.6004L20.4542 15.6219C20.3918 14.871 20.4915 14.1152 20.7464 13.4076C21.0013 12.6998 21.4052 12.0571 21.93 11.5242C22.4548 10.9913 23.0878 10.5811 23.7848 10.3223C24.4818 10.0635 25.2261 9.96219 25.9657 10.0256L25.9433 10.0042C26.828 10.0885 27.7168 9.89367 28.4885 9.44633C29.2601 8.99892 29.877 8.32072 30.2551 7.5042C30.6332 6.6877 30.754 5.77264 30.6012 4.88383C30.4483 3.99502 30.029 3.17575 29.4007 2.53775C28.7724 1.89975 27.9656 1.4741 27.0902 1.31883C26.2149 1.16357 25.3137 1.28626 24.5096 1.67018C23.7054 2.0541 23.0375 2.68054 22.5969 3.46407C22.1563 4.2476 21.9645 5.15007 22.0475 6.04838L22.0264 6.02573C22.089 6.77669 21.9895 7.53249 21.7346 8.24033C21.4798 8.94818 21.0758 9.59099 20.551 10.1239C20.0262 10.6569 19.3931 11.067 18.696 11.3258C17.9989 11.5845 17.2545 11.6856 16.515 11.622L16.5361 11.6446C15.9075 11.5804 15.2727 11.6587 14.6777 11.874C14.0826 12.0892 13.542 12.4362 13.0952 12.8896C12.6484 13.343 12.3062 13.8916 12.0938 14.4956C11.8813 15.0998 11.8036 15.7442 11.8665 16.3825L11.8454 16.3611C11.9076 17.1119 11.8077 17.8675 11.5527 18.5752C11.2978 19.2828 10.8939 19.9255 10.3691 20.4583C9.84436 20.9912 9.21145 21.4013 8.51453 21.6602C7.8176 21.9191 7.07344 22.0205 6.33395 21.9573L6.35509 21.9788C5.47039 21.8944 4.58161 22.0892 3.80995 22.5366C3.0383 22.984 2.42135 23.6622 2.04326 24.4787C1.66516 25.2953 1.54433 26.2103 1.69724 27.0991C1.85014 27.9879 2.26935 28.8072 2.89767 29.4452C3.526 30.0832 4.33286 30.5088 5.20819 30.6641C6.08352 30.8193 6.98471 30.6967 7.78885 30.3128C8.59298 29.9289 9.2609 29.3024 9.70148 28.5189C10.1421 27.7354 10.3339 26.8329 10.2509 25.9345L10.2732 25.956C10.2108 25.2051 10.3105 24.4493 10.5654 23.7417C10.8203 23.0339 11.2243 22.3912 11.749 21.8583C12.2738 21.3254 12.9068 20.9152 13.6038 20.6564C14.3008 20.3976 15.0451 20.2964 15.7846 20.3597Z" fill="#282938"/>
<path id="Vector_3" d="M7.91448 17.9671C8.35952 17.5126 8.70023 16.964 8.91234 16.3603C9.12443 15.7567 9.20267 15.113 9.14147 14.4751L9.16378 14.4965C9.1013 13.7454 9.20106 12.9895 9.45606 12.2816C9.71113 11.5736 10.1153 10.9308 10.6403 10.3978C11.1654 9.86489 11.7987 9.45482 12.496 9.19616C13.1934 8.93749 13.9378 8.83653 14.6775 8.90028L14.6552 8.87882C15.5396 8.96294 16.4281 8.76804 17.1993 8.32068C17.9707 7.87331 18.5873 7.19526 18.9652 6.37901C19.343 5.56276 19.4637 4.64803 19.3108 3.75955C19.1579 2.87108 18.7388 2.05212 18.1108 1.41435C17.4827 0.77659 16.6761 0.351065 15.8011 0.195809C14.9261 0.040555 14.0253 0.163128 13.2214 0.546811C12.4175 0.930495 11.7497 1.55661 11.3091 2.33978C10.8685 3.12294 10.6766 4.02504 10.7594 4.92305L10.7383 4.90159C10.8007 5.65251 10.701 6.40821 10.4461 7.11596C10.1912 7.82371 9.78731 8.46644 9.26249 8.99931C8.73769 9.53219 8.1047 9.94235 7.40768 10.2012C6.71066 10.46 5.96641 10.5613 5.22688 10.4978L5.24801 10.5193C4.52541 10.4535 3.79814 10.574 3.1336 10.8696C2.46905 11.1651 1.88874 11.6262 1.44643 12.2102C1.00411 12.7941 0.714118 13.4819 0.603308 14.2099C0.492498 14.938 0.564459 15.6827 0.812526 16.3749C1.06059 17.0672 1.47674 17.6847 2.0224 18.1701C2.56806 18.6557 3.22557 18.9935 3.93403 19.1522C4.64248 19.311 5.37893 19.2856 6.07516 19.0784C6.77138 18.8713 7.40484 18.489 7.91684 17.9671H7.91448Z" fill="#282938"/>
<path id="Vector_4" d="M44.2852 6.07617H47.7724V23.3073H44.2852V6.07617Z" fill="#282938"/>
<path id="Vector_5" d="M49.7482 17.4075C49.7433 16.1692 50.1005 14.9574 50.7745 13.9254C51.4484 12.8934 52.4089 12.0876 53.5342 11.6104C54.6595 11.133 55.8989 11.0056 57.0957 11.2442C58.2923 11.4827 59.3924 12.0764 60.2564 12.9503C61.1205 13.8241 61.7097 14.9387 61.9494 16.1529C62.1891 17.367 62.0686 18.6261 61.603 19.7706C61.1374 20.9151 60.3478 21.8936 59.3342 22.582C58.3205 23.2705 57.1284 23.638 55.909 23.638C55.0994 23.6474 54.2961 23.4929 53.5462 23.1834C52.7961 22.8739 52.1145 22.4157 51.5408 21.8356C50.9672 21.2555 50.5132 20.5652 50.2054 19.8048C49.8976 19.0445 49.7422 18.2296 49.7482 17.4075ZM58.5824 17.4075C58.5679 16.8738 58.3987 16.3563 58.096 15.9195C57.7934 15.4829 57.3707 15.1466 56.8809 14.9525C56.3909 14.7584 55.8556 14.7153 55.3416 14.8285C54.8278 14.9418 54.3581 15.2063 53.9915 15.589C53.6248 15.9718 53.3774 16.4558 53.2801 16.9805C53.1829 17.5053 53.2402 18.0475 53.4449 18.5394C53.6494 19.0313 53.9923 19.451 54.4306 19.7461C54.8689 20.0411 55.3831 20.1986 55.909 20.1985C56.2691 20.2083 56.6273 20.1422 56.961 20.0043C57.2947 19.8666 57.5967 19.66 57.8478 19.3978C58.0991 19.1355 58.294 18.8234 58.4205 18.4808C58.5469 18.1383 58.6021 17.7728 58.5824 17.4075Z" fill="#282938"/>
<path id="Vector_6" d="M75.9688 11.5059V22.7127C75.9688 26.6781 72.9231 28.3543 69.8315 28.3543C68.743 28.4371 67.6531 28.2138 66.6813 27.7091C65.7096 27.2043 64.8934 26.4376 64.3224 25.493L67.2977 23.7464C67.5377 24.2388 67.9201 24.6451 68.3937 24.9107C68.8673 25.1764 69.4095 25.2888 69.9477 25.2331C70.2918 25.2815 70.6421 25.2507 70.9728 25.143C71.3035 25.0355 71.6062 24.8536 71.8584 24.6112C72.1106 24.3687 72.306 24.0718 72.4299 23.7424C72.5538 23.413 72.6032 23.0594 72.5743 22.7079V21.6291C72.166 22.1364 71.6462 22.5395 71.0568 22.8059C70.4673 23.0724 69.8244 23.1948 69.1799 23.1634C67.6462 23.1143 66.1915 22.4612 65.1238 21.3422C64.056 20.2233 63.459 18.7264 63.459 17.1684C63.459 15.6103 64.056 14.1134 65.1238 12.9944C66.1915 11.8756 67.6462 11.2224 69.1799 11.1733C69.8244 11.1419 70.4673 11.2644 71.0568 11.5308C71.6462 11.7973 72.166 12.2004 72.5743 12.7077V11.5035L75.9688 11.5059ZM72.5755 17.1702C72.599 16.5995 72.4537 16.0348 72.1583 15.5487C71.863 15.0626 71.4312 14.6774 70.9184 14.4425C70.4057 14.2078 69.8355 14.1342 69.2811 14.2312C68.7269 14.3283 68.2139 14.5915 67.8081 14.9871C67.4024 15.3828 67.1226 15.8926 67.0047 16.451C66.8868 17.0095 66.9361 17.591 67.1464 18.1207C67.3568 18.6504 67.7183 19.1041 68.1848 19.4234C68.6512 19.7427 69.2009 19.9129 69.7635 19.9123C70.1298 19.9382 70.4975 19.8859 70.8428 19.7589C71.1881 19.6318 71.5034 19.4326 71.7683 19.1744C72.0332 18.916 72.2419 18.6042 72.3809 18.259C72.5199 17.9139 72.5862 17.543 72.5755 17.1702Z" fill="#282938"/>
<path id="Vector_7" d="M77.9435 17.4075C77.9387 16.1692 78.2958 14.9574 78.9699 13.9254C79.6438 12.8934 80.6043 12.0876 81.7296 11.6104C82.8549 11.133 84.0943 11.0056 85.291 11.2442C86.4877 11.4827 87.5877 12.0764 88.4518 12.9503C89.3159 13.8241 89.9051 14.9387 90.1448 16.1529C90.3846 17.367 90.264 18.6261 89.7984 19.7706C89.3328 20.9151 88.5433 21.8936 87.5296 22.582C86.5159 23.2705 85.3238 23.638 84.1043 23.638C83.2948 23.6474 82.4915 23.4929 81.7416 23.1834C80.9915 22.8739 80.3098 22.4157 79.7362 21.8356C79.1626 21.2555 78.7086 20.5652 78.4008 19.8048C78.093 19.0445 77.9376 18.2296 77.9435 17.4075ZM86.7779 17.4075C86.7633 16.8738 86.5941 16.3563 86.2914 15.9195C85.9888 15.4829 85.5661 15.1466 85.0762 14.9525C84.5863 14.7584 84.0509 14.7153 83.537 14.8285C83.0231 14.9418 82.5535 15.2063 82.1868 15.589C81.8202 15.9718 81.5727 16.4558 81.4755 16.9805C81.3783 17.5053 81.4356 18.0475 81.6402 18.5394C81.8448 19.0313 82.1877 19.451 82.6259 19.7461C83.0643 20.0411 83.5784 20.1986 84.1043 20.1985C84.4645 20.2083 84.8227 20.1422 85.1564 20.0043C85.4901 19.8666 85.7921 19.66 86.0432 19.3978C86.2944 19.1355 86.4894 18.8234 86.6158 18.4808C86.7422 18.1383 86.7974 17.7728 86.7779 17.4075Z" fill="#282938"/>
<path id="Vector_8" d="M91.8906 8.34231C91.8906 7.92212 92.0133 7.51136 92.2433 7.16199C92.4731 6.8126 92.7999 6.54029 93.1825 6.37949C93.5649 6.21869 93.9853 6.17662 94.3909 6.2586C94.7974 6.34057 95.1695 6.54292 95.4625 6.84004C95.7546 7.13716 95.9546 7.51571 96.0346 7.92783C96.1155 8.33994 96.0746 8.76712 95.9155 9.15532C95.7574 9.54357 95.4895 9.87533 95.1453 10.1087C94.8011 10.3422 94.3965 10.4669 93.9825 10.4669C93.43 10.4612 92.9008 10.2356 92.5095 9.83844C92.1183 9.44117 91.8961 8.90403 91.8906 8.34231ZM92.2429 11.5053H95.7314V23.3082H92.2382L92.2429 11.5053Z" fill="#282938"/>
<path id="Vector_9" d="M110.789 17.4072C110.829 18.1873 110.718 18.9677 110.46 19.7036C110.202 20.4396 109.803 21.1166 109.287 21.6956C108.771 22.2746 108.146 22.7443 107.452 23.0775C106.756 23.4109 106.001 23.6012 105.233 23.6377C104.587 23.6735 103.941 23.5629 103.342 23.3138C102.744 23.0646 102.206 22.6834 101.771 22.1975V28.0287H98.2832V11.5058H101.771V12.6145C102.207 12.129 102.744 11.748 103.343 11.4992C103.941 11.2502 104.587 11.1398 105.233 11.1755C106.001 11.2118 106.756 11.4022 107.452 11.7354C108.147 12.0688 108.772 12.5385 109.288 13.1177C109.804 13.6969 110.203 14.3741 110.461 15.1102C110.719 15.8464 110.83 16.627 110.789 17.4072ZM107.302 17.4072C107.289 16.8549 107.115 16.3188 106.802 15.8662C106.491 15.4136 106.053 15.0646 105.547 14.8628C105.04 14.6609 104.486 14.6153 103.955 14.7316C103.423 14.8479 102.936 15.1209 102.556 15.5165C102.176 15.9121 101.919 16.4127 101.818 16.9557C101.718 17.4986 101.776 18.0598 101.987 18.5689C102.199 19.078 102.554 19.5126 103.007 19.8181C103.461 20.1236 103.993 20.2865 104.537 20.2864C104.91 20.3033 105.283 20.2398 105.631 20.1001C105.979 19.9604 106.293 19.7477 106.555 19.4758C106.816 19.2039 107.017 18.8791 107.146 18.5226C107.275 18.1661 107.328 17.7861 107.302 17.4072Z" fill="#282938"/>
<path id="Vector_10" d="M121.548 19.7666C121.548 22.4812 119.225 23.6377 116.715 23.6377C115.701 23.731 114.682 23.5132 113.791 23.0124C112.9 22.5117 112.177 21.7511 111.717 20.8288L114.737 19.0823C114.86 19.5085 115.122 19.8793 115.481 20.1328C115.841 20.3862 116.274 20.5069 116.71 20.4747C117.547 20.4747 117.965 20.2149 117.965 19.7439C117.965 18.4444 112.246 19.13 112.246 15.0466C112.246 12.4726 114.386 11.1754 116.803 11.1754C117.712 11.1463 118.612 11.3652 119.409 11.8093C120.206 12.2535 120.871 12.9065 121.335 13.7006L118.36 15.3291C118.229 15.0199 118.012 14.7567 117.735 14.572C117.458 14.3874 117.134 14.2895 116.803 14.2907C116.199 14.2907 115.826 14.5291 115.826 14.9512C115.83 16.2972 121.548 15.3995 121.548 19.7666Z" fill="#282938"/>
<path id="Vector_11" d="M134.289 11.5054V23.3083H130.802V22.1984C130.4 22.6881 129.889 23.074 129.312 23.3244C128.734 23.5747 128.106 23.6824 127.479 23.6385C125.131 23.6385 123.135 21.9396 123.135 18.7505V11.5054H126.622V18.2319C126.593 18.513 126.624 18.7971 126.714 19.0646C126.805 19.3321 126.951 19.5765 127.143 19.7808C127.336 19.985 127.569 20.1442 127.829 20.2473C128.088 20.3505 128.366 20.395 128.644 20.3778C129.923 20.3778 130.805 19.6232 130.805 17.947V11.5089L134.289 11.5054Z" fill="#282938"/>
<path id="Vector_12" d="M154.283 16.0612V23.3075H150.796V16.3676C150.796 15.1873 150.237 14.4327 149.122 14.4327C147.96 14.4327 147.308 15.2588 147.308 16.6514V23.3075H143.823V16.3676C143.823 15.1873 143.264 14.4327 142.148 14.4327C140.985 14.4327 140.335 15.2588 140.335 16.6514V23.3075H136.848V11.5046H140.335V12.5895C140.697 12.1082 141.171 11.7265 141.716 11.4793C142.26 11.2321 142.856 11.1273 143.45 11.1743C144.047 11.1447 144.641 11.2726 145.174 11.5454C145.708 11.8183 146.163 12.2269 146.495 12.7314C146.881 12.2036 147.393 11.7839 147.983 11.5116C148.572 11.2394 149.22 11.1233 149.865 11.1743C152.534 11.1755 154.283 13.1105 154.283 16.0612Z" fill="#282938"/>
<path id="Vector_13" d="M157.234 11.4325C158.663 11.4325 159.822 10.2561 159.822 8.80489C159.822 7.35368 158.663 6.17725 157.234 6.17725C155.806 6.17725 154.646 7.35368 154.646 8.80489C154.646 10.2561 155.806 11.4325 157.234 11.4325Z" fill="#282938"/>
</g>
<defs>
<clipPath id="clip0_802_404">
<rect width="160" height="32" fill="white"/>
</clipPath>
</defs>
</svg>
