<svg width="135" height="32" viewBox="0 0 135 32" fill="none" xmlns="http://www.w3.org/2000/svg">
<g id="Logo 3" clip-path="url(#clip0_802_431)">
<path id="Vector" d="M39.3027 9.3468H42.6839V23.0049H39.3027V9.3468ZM44.0251 17.8479C44.0251 14.47 46.0988 12.4545 49.2997 12.4545C52.5005 12.4545 54.5743 14.47 54.5743 17.8479C54.5743 21.2259 52.5455 23.2527 49.2997 23.2527C46.0537 23.2527 44.0251 21.2822 44.0251 17.8479ZM51.1818 17.8479C51.1818 15.9901 50.4492 14.8979 49.2997 14.8979C48.15 14.8979 47.4288 16.0239 47.4288 17.8479C47.4288 19.672 48.1388 20.7755 49.2997 20.7755C50.4605 20.7755 51.1818 19.7396 51.1818 17.8592V17.8479ZM55.8478 23.6693H59.0937C59.2482 24.0121 59.5094 24.296 59.8384 24.4786C60.1673 24.6612 60.5466 24.7328 60.9195 24.6826C62.2044 24.6826 62.8807 23.9846 62.8807 22.9712V21.0795H62.813C62.5436 21.6593 62.1065 22.1451 61.558 22.4743C61.0096 22.8034 60.375 22.9608 59.7361 22.9262C57.268 22.9262 55.6337 21.0457 55.6337 17.8142C55.6337 14.5826 57.189 12.5446 59.7813 12.5446C60.4401 12.5188 61.0911 12.6948 61.6471 13.0489C62.203 13.4032 62.6374 13.9186 62.8919 14.5263V12.6459H66.2731V22.8923C66.2731 25.3583 64.0978 26.8896 60.8858 26.8896C57.8991 26.8896 56.0395 25.5496 55.8478 23.6806V23.6693ZM62.8919 17.8367C62.8919 16.1928 62.1367 15.1568 60.9421 15.1568C59.7474 15.1568 59.0149 16.1815 59.0149 17.8367C59.0149 19.4919 59.7361 20.4264 60.9421 20.4264C62.148 20.4264 62.8919 19.5144 62.8919 17.8479V17.8367ZM67.5466 17.8367C67.5466 14.4587 69.6204 12.4432 72.8212 12.4432C76.022 12.4432 78.1071 14.4587 78.1071 17.8367C78.1071 21.2146 76.0784 23.2414 72.8212 23.2414C69.5641 23.2414 67.5466 21.2822 67.5466 17.8479V17.8367ZM74.7034 17.8367C74.7034 15.9788 73.9708 14.8866 72.8212 14.8866C71.6717 14.8866 71.0067 16.0239 71.0067 17.8592C71.0067 19.6945 71.7167 20.7868 72.8663 20.7868C74.0159 20.7868 74.7034 19.7396 74.7034 17.8592V17.8367ZM79.3919 10.1912C79.3831 9.85026 79.4757 9.51426 79.6582 9.22591C79.8408 8.93755 80.1049 8.70978 80.4171 8.57156C80.7293 8.43333 81.0756 8.39083 81.412 8.44944C81.7483 8.50806 82.0598 8.66514 82.3067 8.90075C82.5537 9.13639 82.725 9.44004 82.7991 9.77311C82.8731 10.1061 82.8465 10.4536 82.7226 10.7716C82.5988 11.0895 82.3832 11.3635 82.1032 11.5589C81.8232 11.7543 81.4916 11.8622 81.1501 11.869C80.9238 11.8845 80.6967 11.8531 80.4831 11.7768C80.2695 11.7005 80.074 11.5808 79.9089 11.4254C79.7438 11.2699 79.6126 11.0821 79.5237 10.8736C79.4347 10.665 79.3898 10.4404 79.3919 10.2138V10.1912ZM79.3919 12.6684H82.7731V23.0049H79.3919V12.6684ZM95.0471 17.8367C95.0471 21.2146 93.5479 23.14 90.9784 23.14C90.3194 23.1824 89.6631 23.0214 89.0991 22.6791C88.5342 22.3368 88.0887 21.8295 87.8223 21.2259H87.7546V26.3153H84.3735V12.6459H87.7546V14.4925H87.8223C88.0763 13.879 88.5133 13.3585 89.0742 13.0019C89.6346 12.6454 90.2919 12.4699 90.9553 12.4995C93.5479 12.5446 95.0915 14.4813 95.0915 17.8592L95.0471 17.8367ZM91.6659 17.8367C91.6659 16.1928 90.91 15.1456 89.727 15.1456C88.5435 15.1456 87.7884 16.204 87.7771 17.8367C87.7659 19.4694 88.5435 20.5166 89.727 20.5166C90.91 20.5166 91.6659 19.4919 91.6659 17.8592V17.8367ZM100.851 12.432C103.657 12.432 105.359 13.7607 105.438 15.8888H102.361C102.361 15.1568 101.753 14.6952 100.817 14.6952C99.8813 14.6952 99.4648 15.0555 99.4648 15.5848C99.4648 16.1139 99.8369 16.2828 100.592 16.4405L102.755 16.8796C104.819 17.3187 105.697 18.152 105.697 19.7171C105.697 21.8565 103.747 23.2302 100.873 23.2302C97.9993 23.2302 96.1173 21.8565 95.9708 19.7509H99.2276C99.3298 20.5166 99.9382 20.9669 100.93 20.9669C101.921 20.9669 102.373 20.6404 102.373 20.1C102.373 19.5594 102.057 19.4469 101.246 19.2779L99.296 18.8614C97.2781 18.4448 96.2186 17.3751 96.2186 15.7987C96.2417 13.7719 98.0562 12.4545 100.851 12.4545V12.432ZM116.979 22.9824H113.721V21.057H113.654C113.475 21.7034 113.08 22.2693 112.535 22.6605C111.99 23.0517 111.327 23.2448 110.656 23.2076C110.142 23.2368 109.629 23.1555 109.149 22.9692C108.67 22.7828 108.235 22.4959 107.877 22.1276C107.518 21.7593 107.242 21.3184 107.068 20.8345C106.894 20.3507 106.827 19.8352 106.869 19.323V12.6459H110.251V18.5461C110.251 19.7734 110.882 20.4264 111.93 20.4264C112.176 20.427 112.419 20.375 112.642 20.2739C112.867 20.1729 113.067 20.0253 113.229 19.8408C113.391 19.6563 113.512 19.4393 113.583 19.2044C113.655 18.9695 113.675 18.7219 113.643 18.4785V12.6459H117.025L116.979 22.9824ZM118.613 12.6459H121.882V14.6389H121.949C122.129 14.001 122.515 13.4406 123.047 13.0453C123.579 12.65 124.228 12.4423 124.891 12.4545C125.566 12.4006 126.236 12.6023 126.769 13.0195C127.301 13.4368 127.657 14.0391 127.765 14.7064H127.833C128.037 14.032 128.46 13.4446 129.036 13.0368C129.612 12.6291 130.306 12.4242 131.011 12.4545C131.47 12.4391 131.929 12.5205 132.355 12.6934C132.781 12.8663 133.166 13.1269 133.485 13.4582C133.804 13.7896 134.05 14.1842 134.206 14.6165C134.362 15.0488 134.425 15.5091 134.392 15.9676V23.0049H131.011V16.8683C131.011 15.7424 130.503 15.2244 129.557 15.2244C129.346 15.2226 129.136 15.2661 128.944 15.3519C128.751 15.4377 128.579 15.5638 128.439 15.7217C128.299 15.8797 128.195 16.0658 128.133 16.2675C128.071 16.4691 128.053 16.6817 128.08 16.8909V23.0049H124.869V16.8233C124.869 15.7874 124.362 15.2244 123.437 15.2244C123.224 15.2245 123.013 15.2698 122.818 15.3573C122.624 15.4448 122.449 15.5727 122.307 15.7322C122.166 15.8919 122.06 16.0796 121.996 16.2832C121.933 16.4868 121.913 16.7016 121.938 16.9134V23.0049H118.557L118.613 12.6459Z" fill="#282938"/>
<path id="Vector_2" d="M29.8466 9.96624C29.273 8.65605 28.5139 7.435 27.5924 6.34062C26.2304 4.67455 24.5306 3.31555 22.6049 2.35308C20.6792 1.39061 18.5713 0.846471 16.42 0.756497C14.2686 0.666522 12.1227 1.03274 10.1232 1.83105C8.12375 2.62937 6.31619 3.84167 4.81949 5.38819C3.32278 6.93469 2.17089 8.78034 1.4396 10.8037C0.708309 12.827 0.414213 14.9821 0.576668 17.1271C0.739122 19.2721 1.35445 21.3585 2.38214 23.2488C3.40982 25.1392 4.82658 26.7907 6.53915 28.0946C7.63803 28.9479 8.85226 29.6417 10.1457 30.1551C11.9592 30.8976 13.9001 31.28 15.8599 31.2811C19.9053 31.2722 23.7822 29.6612 26.6406 26.8012C29.499 23.9413 31.1059 20.0657 31.1088 16.024C31.1119 13.9393 30.682 11.8766 29.8466 9.96624ZM15.8486 3.8522C17.6086 3.85201 19.3472 4.23631 20.9429 4.97818C20.5538 5.14614 20.1447 5.26345 19.7257 5.32724C18.3468 5.52664 17.0695 6.16618 16.0843 7.15039C15.0992 8.13461 14.4591 9.41069 14.2594 10.7883C14.1718 11.5608 13.8201 12.2795 13.2637 12.8231C12.7073 13.3667 11.9802 13.7019 11.2051 13.7721C9.82635 13.9715 8.54898 14.611 7.56384 15.5952C6.57869 16.5795 5.93854 17.8556 5.73895 19.2331C5.67137 19.9677 5.35766 20.658 4.84858 21.1923C3.97021 19.3382 3.57563 17.2921 3.70155 15.2446C3.82746 13.1971 4.46978 11.2147 5.56873 9.4818C6.66768 7.749 8.18754 6.32206 9.98684 5.33382C11.7862 4.34558 13.8065 3.82814 15.8599 3.82968L15.8486 3.8522ZM6.52789 23.906C6.66313 23.7821 6.79838 23.6694 6.93363 23.5343C7.93631 22.5631 8.57992 21.2811 8.75945 19.8974C8.83223 19.1197 9.17986 18.3932 9.74002 17.8481C10.279 17.2876 11.0045 16.9432 11.7799 16.8798C13.1588 16.6804 14.4361 16.0408 15.4212 15.0566C16.4064 14.0725 17.0465 12.7963 17.2461 11.4188C17.2949 10.6053 17.6444 9.83886 18.2266 9.2682C18.779 8.71853 19.5114 8.38664 20.2892 8.3336C21.5559 8.15949 22.7373 7.59689 23.6703 6.72345C24.7327 7.60405 25.6329 8.66341 26.3302 9.85371C26.2874 9.91149 26.2382 9.96437 26.1836 10.0113C25.6457 10.5768 24.9211 10.9287 24.1437 11.0022C22.7634 11.1981 21.4842 11.8366 20.4984 12.8214C19.5126 13.8062 18.8736 15.0843 18.6775 16.4632C18.5981 17.2383 18.2528 17.9622 17.7003 18.5122C17.1478 19.0622 16.4219 19.4044 15.6457 19.4808C14.2629 19.6787 12.9808 20.317 11.9899 21.3008C10.9991 22.2846 10.3523 23.5615 10.1457 24.9418C10.0851 25.4921 9.89589 26.0206 9.59347 26.4845C8.43711 25.7985 7.40144 24.9274 6.52789 23.906ZM15.8486 28.2522C14.7049 28.2534 13.5668 28.0942 12.4675 27.7793C12.8435 27.079 13.0879 26.3157 13.1887 25.5273C13.2678 24.7539 13.6113 24.0314 14.1616 23.4816C14.7118 22.9319 15.4351 22.5886 16.2093 22.5097C17.5901 22.3126 18.87 21.674 19.8574 20.6896C20.8447 19.7052 21.4865 18.4278 21.6867 17.0487C21.7657 16.2753 22.1093 15.5527 22.6596 15.003C23.2098 14.4533 23.933 14.11 24.7073 14.031C25.7464 13.896 26.7368 13.5095 27.5924 12.9051C28.0676 14.7043 28.1238 16.5884 27.757 18.4126C27.3901 20.237 26.6099 21.9531 25.476 23.4294C24.3422 24.9056 22.8849 26.1029 21.2161 26.9291C19.5472 27.7553 17.7111 28.1887 15.8486 28.1959V28.2522Z" fill="#282938"/>
</g>
<defs>
<clipPath id="clip0_802_431">
<rect width="135" height="32" fill="white"/>
</clipPath>
</defs>
</svg>
